<svg xmlns="http://www.w3.org/2000/svg" width="528" height="93" viewBox="0 0 139.534 24.384"><path d="M49.018 15.361q0 1.411-.716 2.511-.716 1.089-2.065 1.702-1.349.602-3.165.602-1.515 0-2.542-.207-1.027-.218-2.137-.747v-3.652q1.173.602 2.438.944 1.266.332 2.324.332.913 0 1.339-.311.425-.322.425-.82 0-.311-.176-.54-.166-.239-.55-.477-.374-.239-2.013-.975-1.484-.674-2.231-1.307-.737-.633-1.1-1.453-.353-.82-.353-1.94 0-2.096 1.525-3.268 1.525-1.172 4.192-1.172 2.355 0 4.804 1.089l-1.256 3.165q-2.127-.975-3.673-.975-.799 0-1.162.28-.363.28-.363.695 0 .446.457.799.467.353 2.511 1.287 1.961.882 2.719 1.899.768 1.007.768 2.542zM64.281 4.798v9.131q0 2.978-1.691 4.617-1.681 1.629-4.856 1.629-3.102 0-4.773-1.588-1.66-1.588-1.66-4.566V4.798h4.119v8.903q0 1.608.602 2.335.602.726 1.774.726 1.256 0 1.816-.716.571-.726.571-2.366V4.798zm16.083 7.263q0 3.798-2.096 5.852-2.086 2.055-5.873 2.055h-4.908V4.798h5.25q3.652 0 5.634 1.868 1.992 1.868 1.992 5.396zm-4.254.145q0-2.086-.83-3.092-.82-1.007-2.501-1.007h-1.193v8.498h.913q1.868 0 2.739-1.079.872-1.089.872-3.32zm21.178.156q0 3.829-1.878 5.821-1.878 1.992-5.499 1.992-3.569 0-5.479-2.003-1.899-2.003-1.899-5.831 0-3.787 1.888-5.78 1.899-2.003 5.51-2.003 3.621 0 5.489 1.982 1.868 1.982 1.868 5.821zm-10.438 0q0 4.399 3.061 4.399 1.556 0 2.304-1.069.757-1.069.757-3.331 0-2.272-.768-3.351-.757-1.089-2.272-1.089-3.082 0-3.082 4.441zm26.138 7.606h-4.628l-2.999-5.8-1.214.726v5.074h-4.119V4.798h4.119v6.589q.311-.612 1.256-1.94l3.185-4.649h4.483l-4.783 6.796zm14.547-15.17v9.131q0 2.978-1.691 4.617-1.681 1.629-4.856 1.629-3.102 0-4.773-1.588-1.66-1.588-1.66-4.566V4.798h4.119v8.903q0 1.608.602 2.335.602.726 1.774.726 1.256 0 1.816-.716.571-.726.571-2.366V4.798z" fill="#0037dd"/><g stroke-linejoin="round" stroke-width="1.484" stroke="#0037dd" fill="#fff"><rect transform="matrix(.965926 .258819 -.258819 .965926 -37.223999 -27.482)" style="paint-order:normal" width="17.414" height="17.414" x="60.022" y="14.139" ry="3.467"/><g transform="matrix(-.258819 .965926 -.965926 -.258819 -37.223999 -27.482)"><rect style="paint-order:normal" width="16.576" height=".028" x="14.372" y="-65.904" ry=".014"/><rect ry=".014" y="-71.661" x="14.445" height=".028" width="16.576" style="paint-order:normal"/></g><g transform="matrix(-.965926 -.258819 .258819 -.965926 -37.223999 -27.482)"><rect ry=".014" y="-19.952" x="-76.958" height=".028" width="16.576" style="paint-order:normal"/><rect style="paint-order:normal" width="16.576" height=".028" x="-76.84" y="-25.783" ry=".014"/></g></g></svg>