<?xml version="1.0" encoding="UTF-8" standalone="no"?>
<!-- Created with Inkscape (http://www.inkscape.org/) -->

<svg
   xmlns:dc="http://purl.org/dc/elements/1.1/"
   xmlns:cc="http://creativecommons.org/ns#"
   xmlns:rdf="http://www.w3.org/1999/02/22-rdf-syntax-ns#"
   xmlns:svg="http://www.w3.org/2000/svg"
   xmlns="http://www.w3.org/2000/svg"
   xmlns:sodipodi="http://sodipodi.sourceforge.net/DTD/sodipodi-0.dtd"
   xmlns:inkscape="http://www.inkscape.org/namespaces/inkscape"
   width="21.12081mm"
   height="22.880878mm"
   viewBox="0 0 21.12081 22.880878"
   version="1.1"
   id="svg8"
   inkscape:version="0.92.3 (2405546, 2018-03-11)"
   sodipodi:docname="games.svg">
  <defs
     id="defs2" />
  <sodipodi:namedview
     id="base"
     pagecolor="#ffffff"
     bordercolor="#666666"
     borderopacity="1.0"
     inkscape:pageopacity="0.0"
     inkscape:pageshadow="2"
     inkscape:zoom="7.919596"
     inkscape:cx="41.447093"
     inkscape:cy="40.060768"
     inkscape:document-units="mm"
     inkscape:current-layer="layer1"
     showgrid="false"
     fit-margin-top="0"
     fit-margin-left="0"
     fit-margin-right="0"
     fit-margin-bottom="0"
     inkscape:pagecheckerboard="true"
     inkscape:window-width="1920"
     inkscape:window-height="1017"
     inkscape:window-x="-8"
     inkscape:window-y="-8"
     inkscape:window-maximized="1" />
  <metadata
     id="metadata5">
    <rdf:RDF>
      <cc:Work
         rdf:about="">
        <dc:format>image/svg+xml</dc:format>
        <dc:type
           rdf:resource="http://purl.org/dc/dcmitype/StillImage" />
        <dc:title />
      </cc:Work>
    </rdf:RDF>
  </metadata>
  <g
     inkscape:label="Layer 1"
     inkscape:groupmode="layer"
     id="layer1"
     transform="translate(-98.296738,-119.25004)">
    <rect
       ry="10.560405"
       y="119.25004"
       x="98.296738"
       height="22.880878"
       width="21.12081"
       id="rect857"
       style="opacity:1;fill:#ffffff;fill-opacity:1;stroke:none;stroke-width:1.40200007;stroke-linecap:round;stroke-linejoin:round;stroke-miterlimit:4;stroke-dasharray:none;stroke-opacity:1;paint-order:normal" />
    <g
       aria-label="3"
       transform="rotate(15)"
       style="font-style:normal;font-weight:normal;font-size:25.61608124px;line-height:1.25;font-family:sans-serif;letter-spacing:0px;word-spacing:0px;fill:#142151;fill-opacity:1;stroke:none;stroke-width:0.26458332"
       id="text828">
      <path
         d="m 135.28131,92.638954 q 0.11917,0.102148 0.1897,0.238344 0.0705,0.136197 0.0705,0.362381 0,0.255368 -0.10215,0.476688 -0.0997,0.221319 -0.30887,0.379405 -0.2043,0.153221 -0.48155,0.235912 -0.27483,0.08026 -0.66883,0.08026 -0.44993,0 -0.7734,-0.07053 -0.32103,-0.07053 -0.5229,-0.158085 v -0.795291 h 0.0949 q 0.20916,0.126468 0.49857,0.218887 0.29185,0.09242 0.53263,0.09242 0.14106,0 0.30644,-0.02189 0.16538,-0.02432 0.27969,-0.102147 0.09,-0.0608 0.14349,-0.145925 0.0535,-0.08756 0.0535,-0.250504 0,-0.158086 -0.073,-0.243209 -0.073,-0.08756 -0.19214,-0.124036 -0.11917,-0.03891 -0.28698,-0.04135 -0.16782,-0.0049 -0.31131,-0.0049 h -0.19943 v -0.646934 h 0.20673 q 0.1897,0 0.33562,-0.01216 0.14593,-0.01216 0.24808,-0.05594 0.10701,-0.04621 0.16051,-0.121604 0.0535,-0.07783 0.0535,-0.226184 0,-0.109443 -0.0559,-0.175109 -0.0559,-0.0681 -0.14106,-0.107012 -0.0949,-0.04378 -0.22375,-0.05837 -0.1289,-0.01459 -0.22132,-0.01459 -0.22862,0 -0.49614,0.08026 -0.26753,0.07783 -0.51804,0.226184 h -0.09 v -0.785563 q 0.19944,-0.08026 0.54236,-0.153221 0.34292,-0.0754 0.69557,-0.0754 0.34293,0 0.60073,0.0608 0.2578,0.05837 0.42561,0.158086 0.19943,0.119172 0.29672,0.289418 0.0973,0.170245 0.0973,0.398861 0,0.301578 -0.18727,0.539922 -0.18727,0.235913 -0.49371,0.301579 v 0.03405 q 0.12403,0.01702 0.26266,0.0681 0.13863,0.05107 0.25294,0.148357 z"
         style="font-style:normal;font-variant:normal;font-weight:bold;font-stretch:normal;font-size:4.98090506px;font-family:sans-serif;-inkscape-font-specification:'sans-serif Bold';fill:#142151;fill-opacity:1;stroke-width:0.26458332"
         id="path895" />
    </g>
    <g
       aria-label="5"
       transform="rotate(15)"
       style="font-style:normal;font-weight:normal;font-size:25.61608124px;line-height:1.25;font-family:sans-serif;letter-spacing:0px;word-spacing:0px;fill:#142151;fill-opacity:1;stroke:none;stroke-width:0.26458332"
       id="text832">
      <path
         d="m 140.79045,98.649116 q 0,0.282122 -0.10701,0.52533 -0.10458,0.240776 -0.30644,0.413454 -0.22375,0.184838 -0.5156,0.274825 -0.28942,0.08756 -0.66153,0.08756 -0.43534,-0.0024 -0.73692,-0.07053 -0.29914,-0.06567 -0.48885,-0.148357 v -0.800155 h 0.10215 q 0.22132,0.131332 0.47669,0.218887 0.25537,0.08755 0.5083,0.08755 0.15322,0 0.33077,-0.03405 0.17997,-0.03648 0.28455,-0.128901 0.0827,-0.07539 0.12404,-0.153221 0.0438,-0.07783 0.0438,-0.240776 0,-0.126468 -0.0584,-0.216455 -0.0559,-0.09242 -0.14592,-0.148357 -0.13133,-0.08026 -0.31617,-0.10458 -0.18484,-0.02675 -0.33563,-0.02675 -0.21889,0 -0.42075,0.03891 -0.19943,0.03648 -0.35022,0.07296 h -0.10701 v -2.042949 h 2.57557 v 0.693143 h -1.69759 v 0.590996 q 0.0754,-0.0049 0.1897,-0.0073 0.11674,-0.0049 0.2043,-0.0049 0.29914,0 0.53262,0.05837 0.23592,0.05594 0.40616,0.158085 0.22132,0.133765 0.34536,0.355084 0.12403,0.218888 0.12403,0.552083 z"
         style="font-style:normal;font-variant:normal;font-weight:bold;font-stretch:normal;font-size:4.98090506px;font-family:sans-serif;-inkscape-font-specification:'sans-serif Bold';fill:#142151;fill-opacity:1;stroke-width:0.26458332"
         id="path913" />
    </g>
    <g
       aria-label="8"
       transform="rotate(15)"
       style="font-style:normal;font-weight:normal;font-size:25.61608124px;line-height:1.25;font-family:sans-serif;letter-spacing:0px;word-spacing:0px;fill:#142151;fill-opacity:1;stroke:none;stroke-width:0.26458332"
       id="text836">
      <path
         d="m 140.92003,104.52761 q 0,0.48156 -0.41103,0.788 -0.40859,0.30644 -1.12362,0.30644 -0.40129,0 -0.68828,-0.0827 -0.28698,-0.0827 -0.47425,-0.22862 -0.18484,-0.14349 -0.27483,-0.33562 -0.0876,-0.19214 -0.0876,-0.41346 0,-0.27239 0.15808,-0.48155 0.16052,-0.21159 0.55208,-0.36968 v -0.0146 q -0.31617,-0.14592 -0.46452,-0.36724 -0.14836,-0.22132 -0.14836,-0.51317 0,-0.43048 0.39886,-0.70531 0.39886,-0.27482 1.0385,-0.27482 0.67125,0 1.05066,0.2505 0.38184,0.24808 0.38184,0.66396 0,0.2578 -0.16052,0.45966 -0.16052,0.20187 -0.49128,0.34293 v 0.0146 q 0.3794,0.14349 0.56181,0.3867 0.18241,0.24321 0.18241,0.57397 z m -1.00445,-1.67327 q 0,-0.18484 -0.1435,-0.29428 -0.14106,-0.10944 -0.37697,-0.10944 -0.0875,0 -0.17997,0.0219 -0.09,0.0219 -0.16539,0.0632 -0.0705,0.0413 -0.11674,0.10944 -0.0462,0.0657 -0.0462,0.15079 0,0.14349 0.0803,0.22375 0.0827,0.0803 0.26753,0.16052 0.0681,0.0292 0.18484,0.073 0.11917,0.0413 0.28699,0.0948 0.11187,-0.13133 0.16051,-0.23591 0.0487,-0.10458 0.0487,-0.2578 z m 0.0754,1.71462 q 0,-0.17511 -0.0875,-0.2651 -0.0876,-0.09 -0.35995,-0.20672 -0.0803,-0.0365 -0.23348,-0.09 -0.15322,-0.0535 -0.2578,-0.0924 -0.10458,0.0948 -0.18971,0.23105 -0.0827,0.13376 -0.0827,0.30157 0,0.25294 0.17998,0.40373 0.1824,0.14836 0.47425,0.14836 0.0778,0 0.18241,-0.0219 0.10458,-0.0243 0.17997,-0.073 0.0876,-0.0559 0.14106,-0.13134 0.0535,-0.0754 0.0535,-0.20429 z"
         style="font-style:normal;font-variant:normal;font-weight:bold;font-stretch:normal;font-size:4.98090506px;font-family:sans-serif;-inkscape-font-specification:'sans-serif Bold';fill:#142151;fill-opacity:1;stroke-width:0.26458332"
         id="path904" />
    </g>
    <g
       aria-label="1"
       transform="rotate(15)"
       style="font-style:normal;font-weight:normal;font-size:25.61608124px;line-height:1.25;font-family:sans-serif;letter-spacing:0px;word-spacing:0px;fill:#142151;fill-opacity:1;stroke:none;stroke-width:0.26458332"
       id="text840">
      <path
         d="m 140.71335,94.297592 h -2.41749 v -0.632341 h 0.76367 v -1.914049 h -0.76367 v -0.590996 q 0.17511,0 0.33563,-0.01946 0.16051,-0.02189 0.26753,-0.07296 0.12646,-0.0608 0.1897,-0.158086 0.0632,-0.09728 0.073,-0.243208 h 0.80502 v 2.998758 h 0.74665 z"
         style="font-style:normal;font-variant:normal;font-weight:bold;font-stretch:normal;font-size:4.98090506px;font-family:sans-serif;-inkscape-font-specification:'sans-serif Bold';fill:#142151;fill-opacity:1;stroke-width:0.26458332"
         id="path898" />
    </g>
    <g
       aria-label="4"
       transform="rotate(15)"
       style="font-style:normal;font-weight:normal;font-size:25.61608124px;line-height:1.25;font-family:sans-serif;letter-spacing:0px;word-spacing:0px;fill:#142151;fill-opacity:1;stroke:none;stroke-width:0.26458332"
       id="text844">
      <path
         d="m 135.30667,104.84722 h -0.49371 v 0.84394 h -0.89258 v -0.84394 h -1.75353 v -0.68584 l 1.69516,-2.10132 h 0.95095 v 2.12564 h 0.49371 z m -1.38629,-0.66152 v -1.30846 l -1.05309,1.30846 z"
         style="font-style:normal;font-variant:normal;font-weight:bold;font-stretch:normal;font-size:4.98090506px;font-family:sans-serif;-inkscape-font-specification:'sans-serif Bold';fill:#142151;fill-opacity:1;stroke-width:0.26458332"
         id="path901" />
    </g>
    <g
       aria-label="9"
       transform="rotate(15)"
       style="font-style:normal;font-weight:normal;font-size:25.61608124px;line-height:1.25;font-family:sans-serif;letter-spacing:0px;word-spacing:0px;fill:#142151;fill-opacity:1;stroke:none;stroke-width:0.26458332"
       id="text848">
      <path
         d="m 146.07476,97.870704 q 0,0.454799 -0.11674,0.846364 -0.11674,0.391566 -0.35509,0.659095 -0.2578,0.289418 -0.63964,0.435343 -0.38183,0.143492 -0.89014,0.143492 -0.17997,0 -0.38913,-0.02189 -0.20916,-0.02189 -0.27483,-0.03891 v -0.7126 h 0.0973 q 0.073,0.03405 0.20672,0.07296 0.1362,0.03891 0.36968,0.03891 0.1897,0 0.37211,-0.04621 0.18241,-0.04864 0.31374,-0.150789 0.14349,-0.109443 0.23591,-0.272393 0.0924,-0.165382 0.12404,-0.396429 -0.2116,0.121604 -0.394,0.18727 -0.17998,0.06323 -0.44994,0.06323 -0.20429,0 -0.39156,-0.04864 -0.18484,-0.05107 -0.33806,-0.155653 -0.20186,-0.143493 -0.32347,-0.376973 -0.11917,-0.235912 -0.11917,-0.593428 0,-0.581267 0.40373,-0.94608 0.40615,-0.367244 1.06282,-0.367244 0.33805,0 0.59829,0.08999 0.26266,0.08755 0.45236,0.269961 0.22132,0.209159 0.3332,0.532626 0.11188,0.323467 0.11188,0.787995 z m -0.93149,-0.136197 q 0,-0.296714 -0.0584,-0.486416 -0.0559,-0.192135 -0.15565,-0.296714 -0.0705,-0.07783 -0.16295,-0.111876 -0.0924,-0.03405 -0.19457,-0.03405 -0.0949,0 -0.18241,0.03405 -0.0851,0.03162 -0.16538,0.111876 -0.0754,0.07783 -0.12404,0.204294 -0.0462,0.126469 -0.0462,0.301579 0,0.170245 0.0511,0.286985 0.0511,0.114308 0.14106,0.182407 0.0851,0.06567 0.19943,0.09242 0.11674,0.02675 0.25294,0.02675 0.10944,0 0.23834,-0.02675 0.1289,-0.02918 0.19943,-0.05837 0,-0.02675 0.002,-0.0754 0.005,-0.05107 0.005,-0.150789 z"
         style="font-style:normal;font-variant:normal;font-weight:bold;font-stretch:normal;font-size:4.98090506px;font-family:sans-serif;-inkscape-font-specification:'sans-serif Bold';fill:#142151;fill-opacity:1;stroke-width:0.26458332"
         id="path910" />
    </g>
    <g
       aria-label="7"
       transform="rotate(15)"
       style="font-style:normal;font-weight:normal;font-size:25.61608124px;line-height:1.25;font-family:sans-serif;letter-spacing:0px;word-spacing:0px;fill:#142151;fill-opacity:1;stroke:none;stroke-width:0.26458332"
       id="text852">
      <path
         d="m 146.15449,91.39756 -1.63922,2.901474 h -1.04094 l 1.70246,-2.928227 h -1.86054 v -0.693144 h 2.83824 z"
         style="font-style:normal;font-variant:normal;font-weight:bold;font-stretch:normal;font-size:4.98090506px;font-family:sans-serif;-inkscape-font-specification:'sans-serif Bold';fill:#142151;fill-opacity:1;stroke-width:0.26458332"
         id="path907" />
    </g>
    <rect
       style="opacity:1;fill:#142151;fill-opacity:1;stroke:none;stroke-width:1.17099988;stroke-linecap:round;stroke-linejoin:round;stroke-miterlimit:4;stroke-dasharray:none;stroke-opacity:1;paint-order:normal"
       id="rect854"
       width="0.89620328"
       height="16.404053"
       x="136.31593"
       y="89.621468"
       ry="0.39567843"
       transform="rotate(15)" />
    <rect
       transform="rotate(-75)"
       ry="0.61093587"
       y="131.27623"
       x="-101.27827"
       height="15.884336"
       width="0.89620328"
       id="rect860"
       style="opacity:1;fill:#142151;fill-opacity:1;stroke:none;stroke-width:1.17099988;stroke-linecap:round;stroke-linejoin:round;stroke-miterlimit:4;stroke-dasharray:none;stroke-opacity:1;paint-order:normal" />
    <rect
       style="opacity:1;fill:#142151;fill-opacity:1;stroke:none;stroke-width:1.17099988;stroke-linecap:round;stroke-linejoin:round;stroke-miterlimit:4;stroke-dasharray:none;stroke-opacity:1;paint-order:normal"
       id="rect889"
       width="0.89620328"
       height="15.884336"
       x="-95.773979"
       y="131.27623"
       ry="0.61093587"
       transform="rotate(-75)" />
    <rect
       ry="0.39567843"
       y="89.621468"
       x="141.56035"
       height="16.404053"
       width="0.89620328"
       id="rect893"
       style="opacity:1;fill:#142151;fill-opacity:1;stroke:none;stroke-width:1.17099988;stroke-linecap:round;stroke-linejoin:round;stroke-miterlimit:4;stroke-dasharray:none;stroke-opacity:1;paint-order:normal"
       transform="rotate(15)" />
  </g>
</svg>
