<?xml version="1.0" encoding="UTF-8" standalone="no"?>
<svg
   xmlns:dc="http://purl.org/dc/elements/1.1/"
   xmlns:cc="http://creativecommons.org/ns#"
   xmlns:rdf="http://www.w3.org/1999/02/22-rdf-syntax-ns#"
   xmlns:svg="http://www.w3.org/2000/svg"
   xmlns="http://www.w3.org/2000/svg"
   xmlns:sodipodi="http://sodipodi.sourceforge.net/DTD/sodipodi-0.dtd"
   xmlns:inkscape="http://www.inkscape.org/namespaces/inkscape"
   viewBox="0 0 30 30"
   width="480px"
   height="480px"
   version="1.1"
   id="svg4"
   sodipodi:docname="pencil.svg"
   inkscape:version="0.92.3 (2405546, 2018-03-11)">
  <metadata
     id="metadata10">
    <rdf:RDF>
      <cc:Work
         rdf:about="">
        <dc:format>image/svg+xml</dc:format>
        <dc:type
           rdf:resource="http://purl.org/dc/dcmitype/StillImage" />
        <dc:title />
      </cc:Work>
    </rdf:RDF>
  </metadata>
  <defs
     id="defs8" />
  <sodipodi:namedview
     pagecolor="#ffffff"
     bordercolor="#666666"
     borderopacity="1"
     objecttolerance="10"
     gridtolerance="10"
     guidetolerance="10"
     inkscape:pageopacity="0"
     inkscape:pageshadow="2"
     inkscape:window-width="1920"
     inkscape:window-height="1017"
     id="namedview6"
     showgrid="false"
     inkscape:pagecheckerboard="true"
     inkscape:zoom="1.3906434"
     inkscape:cx="215.78673"
     inkscape:cy="236.11054"
     inkscape:window-x="-8"
     inkscape:window-y="-8"
     inkscape:window-maximized="1"
     inkscape:current-layer="svg4" />
  <path
     d="M 22.828125 3 C 22.316375 3 21.804562 3.1954375 21.414062 3.5859375 L 19 6 L 24 11 L 26.414062 8.5859375 C 27.195062 7.8049375 27.195062 6.5388125 26.414062 5.7578125 L 24.242188 3.5859375 C 23.851688 3.1954375 23.339875 3 22.828125 3 z M 17 8 L 5.2597656 19.740234 C 5.2597656 19.740234 6.1775313 19.658 6.5195312 20 C 6.8615312 20.342 6.58 22.58 7 23 C 7.42 23.42 9.6438906 23.124359 9.9628906 23.443359 C 10.281891 23.762359 10.259766 24.740234 10.259766 24.740234 L 22 13 L 17 8 z M 4 23 L 3.0566406 25.671875 A 1 1 0 0 0 3 26 A 1 1 0 0 0 4 27 A 1 1 0 0 0 4.328125 26.943359 A 1 1 0 0 0 4.3378906 26.939453 L 4.3632812 26.931641 A 1 1 0 0 0 4.3691406 26.927734 L 7 26 L 5.5 24.5 L 4 23 z"
     id="path2"
     style="fill:#9d9d9d;fill-opacity:1" />
</svg>
