<svg xmlns="http://www.w3.org/2000/svg" xmlns:xlink="http://www.w3.org/1999/xlink" width="761" height="432" viewBox="0 0 201.348 114.111"><style><![CDATA[.P{stroke-linejoin:round}.Q{stroke-linecap:round}.R{fill:#142151}.S{stroke-width:2.49}]]></style><defs><linearGradient id="A"><stop offset="0" stop-color="#fff"/><stop offset="1" stop-color="#fff" stop-opacity="0"/></linearGradient><linearGradient xlink:href="#A" id="B" x1="-46.468" y1="149.544" x2="-84.663" y2="111.394" gradientUnits="userSpaceOnUse"/></defs><g transform="translate(166.158 -56.229)"><path style="paint-order:normal" d="M-166.158 56.229H35.19V170.34h-201.348z" fill="#ff1167"/><path style="paint-order:normal" d="M-113.773 125.639C-67.6 6.825-.861 174.416 35.19 56.229V170.34h-201.348c7.731-29.646 26.738-104.552 52.385-44.701z" fill="#e30f5c"/><g stroke="#2bb" class="P Q"><path d="M8.44 147.688c7.693.917 30.524 10.753 7.24 23.023m-36.571-20.128c-10.157 14.24-24.773-.447-25.577-1.039" fill="none" stroke-width="9.41"/><g stroke-width="8.292" transform="scale(-1 1)" fill="#a329a3"><rect ry=".776" y="150.524" x="19.934" height="36.311" width="1.868" style="paint-order:normal"/><rect style="paint-order:normal" width="1.868" height="36.311" x="-10.137" y="150.524" ry=".776"/></g></g><rect style="paint-order:normal" width="40.177" height="64.118" x="-14.237" y="120.087" ry="20.088" transform="scale(-1 1)" fill="#2bb"/><rect ry="20.088" y="120.087" x="-14.237" height="43.572" width="40.177" style="paint-order:normal" transform="scale(-1 1)" fill="#28dddd"/><circle style="paint-order:normal" cx="4.572" cy="136.714" r="3.877" transform="scale(-1 1)" fill="#fff" stroke="#fff" stroke-width="1.7" class="P Q"/><circle cy="136.894" cx="5.243" style="paint-order:normal" r="3.575" transform="scale(-1 1)" class="R"/><circle cy="137.984" cx="16.105" style="paint-order:normal" r="3.877" transform="scale(-1 1)" fill="#fff" stroke="#fff" stroke-width="1.7" class="P Q"/><circle style="paint-order:normal" cx="16.81" cy="138.154" r="3.575" transform="scale(-1 1)" class="R"/><g stroke="#ff1167" fill="none" class="P Q"><path d="M-5.806 147.543s-5.865 2.847-11.458.29" stroke-width="6.09"/><g stroke-width="5.186"><circle style="paint-order:normal" cx="-133.792" cy="157.057" r="5.613"/><circle r="5.613" cy="137.412" cx="-133.792" style="paint-order:normal"/><circle style="paint-order:normal" cx="-133.792" cy="117.581" r="5.613"/></g></g><path d="M-46.468 149.544c-56.262 15.343-28.131 7.672 0 0z" fill="url(#B)"/><rect style="paint-order:normal" width="26.107" height="34.207" x="-117.269" y="101.639" ry="3.377" transform="matrix(.9444 -.3288 .327728 .944772 0 0)" fill="#ffeef4"/><path d="M-42.078 149.686c-2.678-3.258-3.611-3.342-6.471-4.966" fill="none" stroke="#2bb" stroke-width="4.235" class="P Q"/><rect style="paint-order:normal" width="6.395" height="9.405" x="-71.03" y="140.669" ry="3.198" transform="rotate(-7.3845841)" fill="#f4e6e6"/><g class="P Q S"><g stroke="#142151"><path d="M-66.858 153.635l9.151-3.192m-7.768 7.236l9.151-3.192" fill="#b3b3b3" fill-opacity=".983"/><path d="M-64.092 161.722l13.833-5.001" class="R"/></g><ellipse style="paint-order:normal" cx="-64.783" cy="141.648" rx="6.172" ry="6.012" fill="#f2f2f2" stroke="#f4e6e6"/></g><g fill="#e30f5c"><ellipse style="paint-order:normal" cx="-107.424" cy="116.382" rx="4.176" ry="2.235" transform="rotate(-19.226752)"/><ellipse style="paint-order:normal" cx="-103.978" cy="114.872" rx="1.843" ry="1.943" transform="rotate(-17.36022)"/></g><ellipse ry="6.012" rx="6.172" cy="141.648" cx="-64.783" style="paint-order:normal" fill="none" stroke="#f4e6e6" class="P Q S"/></g></svg>