<svg xmlns="http://www.w3.org/2000/svg" width="1442" height="835" viewBox="0 0 381.386 220.884"><rect style="paint-order:normal" width="381.386" height="220.594" y=".291" rx="0" ry="0" fill="#021d92" x="0"/><path d="M381.8 220.885v-93.029C305.879 246.816 95.105 112.852 0 220.885z" fill="#0037dd"/><path d="M0 .291V125.98C61.41 42.275 262.327 147.724 349.554.291z" fill="#00115b"/><g fill="#ffed6c"><path d="M256.426 0h-28.939l-64.906 151.141h64.492z" fill-opacity=".206"/><path d="M113.19.291h28.939l64.906 151.141h-64.492z" fill-opacity=".433"/><path d="M133.229 0h28.939l64.906 151.141h-64.492z" fill-opacity=".206"/><path d="M276.01 0h-28.939l-64.906 151.141h64.492z" fill-opacity=".433"/></g><path style="paint-order:normal" d="M99.743 151.722a-94.051-40.692 0 0 1 47.026-35.24-94.051-40.692 0 0 1 94.051 0-94.051-40.692 0 0 1 47.026 35.24h-94.051z" fill="#fff" fill-opacity=".167"/><path style="paint-order:normal" d="M99.743 151.722a-94.051-20.055 0 0 1 47.026-17.368-94.051-20.055 0 0 1 94.051 0-94.051-20.055 0 0 1 47.026 17.368h-94.051z" fill="#ffed6c" fill-opacity=".383"/><path d="M99.743 151.722a-94.051-29.066 0 0 1 47.026-25.171-94.051-29.066 0 0 1 94.051 0-94.051-29.066 0 0 1 47.026 25.171h-94.051z" style="paint-order:normal" fill="#f8f8f8" fill-opacity=".383"/><g transform="matrix(1.240165 .719672 -.719672 1.240165 249.130829 -5.54513)"><g stroke-linecap="square" stroke-width="3.44" stroke="#ffed6c" fill="none"><path style="paint-order:normal" d="M11.602 96.342c-19.296 10.643-47.6-14.478-25.863-22.013 4.276-2.874 6.982-.387 11.443-2.963l7.21 12.488z"/><path d="M11.602 96.342c18.865-11.39 11.262-48.462-6.132-33.404-4.627 2.266-3.826 5.853-8.288 8.429l7.21 12.488z" style="paint-order:normal"/></g><g fill="#ffed6c"><path style="paint-order:normal" d="M7.356 52.546a29.604 15.293 0 0 1 4.354 25.532 29.604 15.293 0 0 1-15.581 8.996 29.604 15.293 0 0 1-19.935-16.536l15.581-8.996z"/><rect style="paint-order:normal" width="4.233" height="35.799" x="-40.011" y="71.939" ry="0" transform="rotate(-30)"/><path style="paint-order:normal" d="M7.046 118.114l26.086-15.061 1.894 3.281L8.94 121.395z"/><path style="paint-order:normal" d="M7.052 118.218a-14.139 5.679 0 0 1 5.6-5.385-14.139 5.679 0 0 1 13.063-7.542-14.139 5.679 0 0 1 7.463-2.157l-13.063 7.542z"/></g><ellipse cy="35.516" cx="-65.964" style="paint-order:normal" rx="8.994" ry="11.772" transform="rotate(-57.773214)" fill="#fff49d"/><g fill="#fffad2" transform="matrix(.866025 -.5 .5 .866025 0 0)"><circle style="paint-order:normal" cx="-49.282" cy="57.032" r="4.116"/><circle r="2.264" cy="63.249" cx="-44.52" style="paint-order:normal"/></g></g><rect ry="0" rx="0" y="151.722" x="99.75" height="13.643" width="188.516" style="paint-order:normal" fill="#f44"/><rect style="paint-order:normal" width="188.516" height="55.445" x="99.75" y="165.365" rx="0" ry="0" fill="#9a3232"/><path style="paint-order:normal" d="M116.685 182.107l7.191-1.039 3.22-6.51 3.211 6.515 7.189 1.049-5.206 5.066 1.224 7.159-6.429-3.384-6.433 3.375 1.233-7.157zm33.283 19.083l7.191-1.039 3.22-6.51 3.211 6.515 7.189 1.049-5.206 5.066 1.224 7.159-6.429-3.384-6.433 3.375 1.233-7.157zm33.283-20.694l7.191-1.039 3.22-6.51 3.211 6.515 7.189 1.049-5.206 5.066 1.224 7.159-6.429-3.384-6.433 3.375 1.233-7.157zm33.283 20.694l7.191-1.039 3.22-6.51 3.211 6.515 7.189 1.049-5.206 5.066 1.224 7.159-6.429-3.384-6.433 3.375 1.233-7.157zm33.283-19.083l7.191-1.039 3.22-6.51 3.211 6.515 7.189 1.049-5.206 5.066 1.224 7.159-6.429-3.384-6.433 3.375 1.233-7.157z" fill="#832a2a"/></svg>