<svg xmlns="http://www.w3.org/2000/svg" width="761" height="432" viewBox="0 0 201.348 114.111"><g transform="translate(166.158 -56.229)"><path style="paint-order:normal" d="M-166.158 56.229H35.19V170.34h-201.348z" fill="#021d92"/><path d="M-118.24 94.57l-9.997-3.458-6.737 8.155.2-10.576-9.838-3.887 10.12-3.078.657-10.558 6.055 8.674 10.244-2.638-6.378 8.439z" style="paint-order:normal" transform="matrix(.889768 .112178 -.112178 .889768 -19.37912 87.723648)" opacity=".164" fill="none" stroke="#010b3b" stroke-width="4.345" stroke-linecap="round" stroke-linejoin="round"/><path style="paint-order:normal" d="M-113.773 125.639c62.726 19.953 109.775-.885 148.963-69.41V170.34h-201.348c7.765-29.758 49.85-4.756 52.385-44.701z" fill="#00115b"/><g fill="#123ffc"><circle style="paint-order:normal" cx="-40.692" cy="136.697" r="5.519"/><circle r="5.519" cy="127.935" cx="-71.187" style="paint-order:normal"/><circle style="paint-order:normal" cx="-100.515" cy="145.587" r="5.519"/><path style="paint-order:normal" d="M-115.808 155.835h29.747v14.319h-29.747z"/></g><path style="paint-order:normal" d="M-86.061 138.647h29.747v31.507h-29.747z" fill="#0021ab"/><path style="paint-order:normal" d="M-56.314 147.125h29.747v23.028h-29.747z" fill="#000a39"/><path style="paint-order:normal" d="M-1.917 65.752c-2.253.008-4.843 1.075-7.697 3.545-4.627 2.266-3.826 5.853-8.288 8.429s-7.168.089-11.443 2.963c-21.737 7.535 6.567 32.656 25.863 22.013 15.77-9.521 13.044-36.989 1.565-36.95z" fill="none" stroke="#ffed6c" stroke-width="3.44" stroke-linecap="square"/><path style="paint-order:normal" d="M-6.272 61.816l-31.162 17.992a28.046 17.992 60 0 0 19.935 16.536 28.046 17.992 60 0 0 7.722-.384L3.61 119.148a2.152 15.084 60 0 0-4.586 2.955 2.152 15.084 60 0 0-5.6 5.385l.041-.024 1.847 3.2 26.086-15.061-1.894-3.281-.014.008a2.152 15.084 60 0 0-7.403 2.231 2.152 15.084 60 0 0-4.809 2.472L-6.097 93.867a28.046 17.992 60 0 0 4.18-6.519 28.046 17.992 60 0 0-4.354-25.532z" fill="#ffed6c"/><ellipse cy="28.931" cx="-81.073" style="paint-order:normal" rx="8.994" ry="11.772" transform="rotate(-57.773214)" fill="#fff49d"/><g fill="#fffad2" transform="matrix(.866025 -.5 .5 .866025 0 0)"><circle style="paint-order:normal" cx="-65.719" cy="58.246" r="4.116"/><circle r="2.264" cy="64.463" cx="-60.956" style="paint-order:normal"/></g><g stroke-linejoin="round" stroke-linecap="round" stroke="#010b3b" fill="none"><path transform="matrix(1.10966 -.238058 .238161 1.109576 -16.976648 -13.840753)" style="paint-order:normal" d="M-118.24 94.57l-9.997-3.458-6.737 8.155.2-10.576-9.838-3.887 10.12-3.078.657-10.558 6.055 8.674 10.244-2.638-6.378 8.439z" opacity=".164" stroke-width="4.327"/><path d="M-118.24 94.57l-9.997-3.458-6.737 8.155.2-10.576-9.838-3.887 10.12-3.078.657-10.558 6.055 8.674 10.244-2.638-6.378 8.439z" style="paint-order:normal" transform="matrix(1.469548 .710737 -.710774 1.469734 150.861237 54.41951)" opacity=".164" stroke-width="3.008"/></g></g></svg>