<?xml version="1.0" encoding="UTF-8" standalone="no"?>
<svg
   xmlns:dc="http://purl.org/dc/elements/1.1/"
   xmlns:cc="http://creativecommons.org/ns#"
   xmlns:rdf="http://www.w3.org/1999/02/22-rdf-syntax-ns#"
   xmlns:svg="http://www.w3.org/2000/svg"
   xmlns="http://www.w3.org/2000/svg"
   xmlns:xlink="http://www.w3.org/1999/xlink"
   xmlns:sodipodi="http://sodipodi.sourceforge.net/DTD/sodipodi-0.dtd"
   xmlns:inkscape="http://www.inkscape.org/namespaces/inkscape"
   width="3078"
   height="1417"
   viewBox="0 0 814.21 374.878"
   version="1.1"
   id="svg172"
   sodipodi:docname="play_night.svg"
   inkscape:version="0.92.3 (2405546, 2018-03-11)">
  <metadata
     id="metadata176">
    <rdf:RDF>
      <cc:Work
         rdf:about="">
        <dc:format>image/svg+xml</dc:format>
        <dc:type
           rdf:resource="http://purl.org/dc/dcmitype/StillImage" />
      </cc:Work>
    </rdf:RDF>
  </metadata>
  <sodipodi:namedview
     pagecolor="#ffffff"
     bordercolor="#666666"
     borderopacity="1"
     objecttolerance="10"
     gridtolerance="10"
     guidetolerance="10"
     inkscape:pageopacity="0"
     inkscape:pageshadow="2"
     inkscape:window-width="1920"
     inkscape:window-height="1017"
     id="namedview174"
     showgrid="false"
     inkscape:zoom="0.36907082"
     inkscape:cx="458.19111"
     inkscape:cy="516.07024"
     inkscape:window-x="-8"
     inkscape:window-y="-8"
     inkscape:window-maximized="1"
     inkscape:current-layer="svg172"
     inkscape:snap-global="false" />
  <style
     id="style2"><![CDATA[.B{stroke-linecap:round}.C{stroke-linejoin:round}.D{fill:#fff}.E{fill-opacity:0.874}.F{fill:#0037dd}.G{stroke:#f16}.H{fill:#c0a07b}.I{fill:#142151}.J{stroke-width:41.518}.K{fill:#7c859f}.L{stroke:#ed105f}.M{stroke-opacity:0.282}.N{stroke-width:3.61}]]></style>
  <defs
     id="defs10">
    <linearGradient
       id="A">
      <stop
         offset="0"
         stop-color="#234dfc"
         id="stop4" />
      <stop
         offset="1"
         stop-color="#234dfc"
         stop-opacity="0"
         id="stop6" />
    </linearGradient>
    <linearGradient
       xlink:href="#A"
       id="B"
       x1="381.689"
       y1="213.877"
       x2="247.208"
       y2="157.256"
       gradientUnits="userSpaceOnUse"
       gradientTransform="matrix(0.35150799,0,0,0.35119663,432.4881,104.15851)" />
  </defs>
  <rect
     style="fill:#171821;fill-opacity:1"
     id="rect12"
     class="D"
     width="814.21002"
     height="374.87799"
     x="-2.3193359e-006"
     y="-1.6479493e-006"
     ry="0" />
  <path
     style="fill:none;fill-opacity:0.87400004;stroke:#ff1166;stroke-width:9.60011768;stroke-linecap:round;stroke-linejoin:round;stroke-opacity:0.28200001"
     inkscape:connector-curvature="0"
     id="path14"
     class="B C E G J M"
     d="m 216.51391,406.90693 -19.99218,-16.25522 -23.55516,6.63641 7.93163,-23.32393 -14.94303,-21.05944 24.89411,1.84021 14.31974,-19.65187 7.45369,24.46134 23.79304,8.914 -20.28742,13.27776 z" />
  <path
     style="fill:#234dfc"
     inkscape:connector-curvature="0"
     id="path16"
     d="m 563.59554,188.69246 -37.892,12.673 -2.667,-7.974 q 3.292,-4.597 6.454,-9.583 3.194,-4.997 4.963,-8.436 2.654,-5.104 3.364,-8.477 0.71,-3.373 -0.211,-6.128 -1.106,-3.306 -3.841,-4.374 -2.714,-1.111 -6.701,0.223 -2.982,0.997 -5.876,3.335 -2.862,2.327 -5.042,5.182 l -1.037,0.347 -3.588,-10.729 q 1.965,-1.775 6.102,-4.275 4.169,-2.512 8.675,-4.019 9.076,-3.035 15.12,-0.804 6.033,2.199 8.364,9.168 1.529,4.57 0.604,9.457 -0.892,4.876 -4.129,10.823 -2.039,3.709 -4.251,7.008 -2.223,3.266 -3.184,4.597 l 21.685,-7.252 z m -31.901,-109.122999 q 1.258,3.76 0.915,7.478 -0.321,3.675 -2.241,6.876 -2.158,3.461 -5.647,5.961 -3.467,2.456999 -8.426,4.115999 -5.813,1.908 -10.136,2.345 -4.28,0.458 -7.176,0.202 l -3.567,-10.663999 1.361,-0.455 q 3.535,0.764 7.329,0.792 3.794,0.029 7.165,-1.099 2.042,-0.683 4.257,-1.928 2.236,-1.288 3.218,-2.986 0.766,-1.373 0.97,-2.595 0.237,-1.232 -0.49,-3.404 -0.564,-1.686 -1.743,-2.625 -1.157,-0.982 -2.606,-1.327 -2.108,-0.484 -4.68,0.016 -2.583,0.467 -4.592,1.139 -2.917,0.976 -5.434,2.394 -2.495,1.375 -4.342,2.534 l -1.426,0.477 -9.106,-27.228 34.327,-11.48 3.09,9.238 -22.625,7.567 2.634,7.877 q 0.983,-0.401 2.496,-0.943 1.534,-0.585 2.701,-0.976 3.987,-1.333 7.359,-1.596 3.394,-0.306 6.118,0.297 3.546,0.796 6.186,3.193 2.629,2.364 4.114,6.805 z m 81.463,-45.628 -8.914,45.977 -13.873,4.64 9.638,-46.615 -24.797,8.293 -3.09,-9.238 37.828,-12.651 z" />
  <g
     style="fill:#1b1d29;fill-opacity:1"
     id="g44"
     transform="translate(255.843,84.997)">
    <g
       id="g30"
       transform="matrix(0.965417,-0.260711,0.25246,0.967607,0,0)"
       style="fill:#1b1d29;fill-opacity:1">
      <rect
         id="rect18"
         ry="16.906"
         y="-89.801003"
         x="-74.708"
         height="489.733"
         width="21.038"
         style="fill:#1b1d29;fill-opacity:1" />
      <rect
         id="rect20"
         width="21.038"
         height="489.733"
         x="14.772"
         y="-90.014"
         ry="16.906"
         style="fill:#1b1d29;fill-opacity:1" />
      <rect
         id="rect22"
         ry="16.906"
         y="-90.225998"
         x="104.253"
         height="489.733"
         width="21.038"
         style="fill:#1b1d29;fill-opacity:1" />
      <rect
         id="rect24"
         width="21.038"
         height="489.733"
         x="193.733"
         y="-90.439003"
         ry="16.906"
         style="fill:#1b1d29;fill-opacity:1" />
      <rect
         id="rect26"
         ry="16.906"
         y="-90.652"
         x="283.21399"
         height="489.733"
         width="21.038"
         style="fill:#1b1d29;fill-opacity:1" />
      <rect
         id="rect28"
         width="21.038"
         height="489.733"
         x="372.694"
         y="-90.863998"
         ry="16.906"
         style="fill:#1b1d29;fill-opacity:1" />
    </g>
    <rect
       id="rect32"
       width="21.355"
       height="468.44101"
       x="69.537003"
       y="-74.704002"
       ry="16.171"
       transform="matrix(-0.252525,-0.967591,0.965435,-0.260643,0,0)"
       style="fill:#1b1d29;fill-opacity:1" />
    <rect
       id="rect34"
       transform="matrix(-0.25125,-0.967922,0.965079,-0.261958,0,0)"
       ry="16.138"
       y="-74.707001"
       x="-23.499001"
       height="467.49701"
       width="21.347"
       style="fill:#1b1d29;fill-opacity:1" />
    <rect
       id="rect36"
       width="21.349001"
       height="467.91901"
       x="-116.283"
       y="-74.612999"
       ry="16.153"
       transform="matrix(-0.251478,-0.967863,0.965143,-0.261722,0,0)"
       style="fill:#1b1d29;fill-opacity:1" />
    <rect
       id="rect38"
       transform="matrix(-0.24836,-0.968668,0.964253,-0.264984,0,0)"
       ry="15.954"
       y="-70.777"
       x="-209.646"
       height="462.159"
       width="21.330999"
       style="fill:#1b1d29;fill-opacity:1" />
    <rect
       id="rect40"
       width="21.316999"
       height="457.483"
       x="-302.936"
       y="-67.057999"
       ry="15.792"
       transform="matrix(-0.245821,-0.969315,0.963505,-0.267692,0,0)"
       style="fill:#1b1d29;fill-opacity:1" />
    <rect
       id="rect42"
       transform="matrix(-0.252525,-0.967591,0.965435,-0.260643,0,0)"
       ry="16.171"
       y="-73.662003"
       x="-395.992"
       height="468.44101"
       width="21.355"
       style="fill:#1b1d29;fill-opacity:1" />
  </g>
  <path
     style="opacity:0.26800005;fill:none;fill-opacity:0.87400004;stroke:#123ffc;stroke-width:9.60010433;stroke-linecap:round;stroke-linejoin:round"
     inkscape:connector-curvature="0"
     id="path46"
     class="B C E"
     d="m 815.70512,205.73601 -27.67989,18.385 -0.85301,32.13744 -25.68527,-19.38842 -31.66175,10.1225 11.80545,-30.36761 -18.71508,-25.88124 32.98152,0.62035 20.09527,-26.11784 8.5783,30.75094 z" />
  <g
     style="fill:#234dfc"
     id="g52"
     transform="translate(255.843,84.997)">
    <path
       inkscape:connector-curvature="0"
       id="path48"
       d="m -3.183,-19.629 -6.58,2.201 3.762,11.248 -11.896,3.979 -3.762,-11.248 -23.371,7.816 c 0.12,0.276 -0.814,-2.521 -3.057,-9.141 l 13.226,-35.562 12.674,-4.239 9.475,28.33 6.58,-2.201 z m -21.425,-2.637 -5.832,-17.439 -8.203,22.133 z"
       style="paint-order:normal" />
    <path
       inkscape:connector-curvature="0"
       id="path50"
       d="m 65.527,238.044 q 2.044,0.83 3.591,2.331 1.547,1.501 2.555,4.515 1.138,3.404 0.763,6.809 -0.342,3.394 -2.425,6.433 -2.04,2.953 -5.366,5.291 -3.305,2.295 -8.556,4.051 -5.997,2.005 -10.622,2.507 -4.593,0.491 -7.674,0.224 l -3.545,-10.599 1.264,-0.423 q 3.351,0.753 7.621,0.695 4.302,-0.069 7.511,-1.142 1.88,-0.629 3.987,-1.658 2.096,-1.061 3.272,-2.608 0.928,-1.211 1.262,-2.584 0.323,-1.405 -0.403,-3.577 -0.705,-2.107 -2.056,-2.916 -1.363,-0.842 -3.114,-0.797 -1.762,0.013 -4.009,0.728 -2.258,0.683 -4.171,1.323 l -2.658,0.889 -2.884,-8.622 2.755,-0.922 q 2.528,-0.846 4.419,-1.658 1.891,-0.812 3.057,-1.851 1.22,-1.093 1.597,-2.336 0.366,-1.276 -0.295,-3.253 -0.488,-1.459 -1.526,-2.085 -1.049,-0.658 -2.357,-0.797 -1.459,-0.161 -3.242,0.219 -1.783,0.38 -3.015,0.792 -3.047,1.019 -6.255,3.281 -3.219,2.23 -5.896,5.324 l -1.199,0.401 -3.502,-10.47 q 2.3,-1.959 6.545,-4.46 4.234,-2.533 8.934,-4.105 4.57,-1.528 8.277,-1.867 3.696,-0.371 6.377,0.21 3.189,0.699 5.245,2.535 2.055,1.835 3.074,4.882 1.344,4.019 -0.089,8.031 -1.444,3.979 -5.236,6.22 l 0.152,0.454 q 1.729,-0.326 3.804,-0.263 2.075,0.063 4.032,0.85 z m -18.869,-69.258 -32.22,10.776 -2.819,-8.428 10.178,-3.404 -8.532,-25.51 -10.178,3.404 -2.634,-7.877 q 2.334,-0.78 4.386,-1.755 2.042,-1.007 3.24,-2.165 1.415,-1.374 1.824,-2.953 0.409,-1.578 -0.112,-3.567 l 10.729,-3.588 13.367,39.967 9.951,-3.328 z" />
  </g>
  <path
     d="M 130.82958,149.66225 92.520451,147.58436 63.257162,171.37947 53.480081,135.80502 20.833683,116.47423 53.100144,96.566086 62.186585,60.824038 91.905457,84.094662 130.16758,81.335344 116.26803,115.62562 Z"
     class="E G M"
     id="path54"
     inkscape:connector-curvature="0"
     style="fill:none;fill-opacity:0.87400004;stroke:#ff1166;stroke-width:9.59981251;stroke-linecap:round;stroke-linejoin:round;stroke-opacity:0.28200001" />
  <path
     d="M 130.19023,34.749508 107.34072,22.840738 85.59837,34.072681 88.684018,9.6310799 69.815893,-7.9980769 94.57235,-11.195056 l 10.08108,-22.127345 12.21462,22.46587 25.09852,3.9538086 -17.20735,17.0816614 z"
     class="E J"
     id="path56"
     inkscape:connector-curvature="0"
     style="opacity:0.21300001;fill:none;fill-opacity:0.87400004;stroke:#bdc1d3;stroke-width:9.60010338;stroke-linecap:round;stroke-linejoin:round" />
  <path
     d="m 192.79609,205.41261 -22.12071,6.46841 -7.10578,20.82808 -13.11007,-17.8136 -23.08344,0.27199 14.01817,-17.47777 -7.16064,-20.65988 21.77381,7.01185 18.65795,-13.0404 -0.56118,21.8113 z"
     class="E G M"
     id="path58"
     inkscape:connector-curvature="0"
     style="fill:none;fill-opacity:0.87400004;stroke:#ff1166;stroke-width:9.59991646;stroke-linecap:round;stroke-linejoin:round;stroke-opacity:0.28200001" />
  <path
     d="m 785.95178,80.6597 -25.70154,-1.830606 -15.47565,18.957625 -6.89724,-23.650418 -24.32584,-8.663015 21.43872,-12.786129 0.44135,-24.311602 20.14708,15.748285 24.5986,-6.362262 -8.98708,22.519088 z"
     class="E J"
     id="path60"
     inkscape:connector-curvature="0"
     style="opacity:0.21300001;fill:none;fill-opacity:0.87400004;stroke:#123ffc;stroke-width:9.60011196;stroke-linecap:round;stroke-linejoin:round" />
  <path
     d="m 44.647851,181.74834 c -6.737337,28.24091 -32.549335,-9.17501 -18.402594,-23.48648 m 72.991756,28.87442 c 18.904667,26.50335 46.107247,-0.83154 47.603847,-1.93296"
     class="L"
     id="path62"
     inkscape:connector-curvature="0"
     style="fill:none;stroke:#ed105f;stroke-width:17.51409721;stroke-linecap:round;stroke-linejoin:round" />
  <g
     style="fill:#a329a3;stroke-width:17.61199951"
     id="g70"
     transform="matrix(0.87623052,0,0,0.87623052,230.86873,11.602777)">
    <rect
       id="rect66"
       class="B C L"
       ry="1.648"
       y="200.203"
       x="-152.257"
       height="77.125999"
       width="3.967"
       style="stroke:#ed105f;stroke-linecap:round;stroke-linejoin:round;paint-order:normal" />
    <rect
       id="rect68"
       class="B C L"
       style="stroke:#ed105f;stroke-linecap:round;stroke-linejoin:round;paint-order:normal"
       width="3.967"
       height="77.125999"
       x="-216.131"
       y="200.203"
       ry="1.648" />
  </g>
  <rect
     id="rect72"
     style="fill:#ed105f;stroke-width:0.87623054;paint-order:normal"
     width="74.775764"
     height="119.3347"
     x="33.858826"
     y="130.37932"
     ry="37.387882" />
  <rect
     id="rect74"
     ry="37.387882"
     y="130.37932"
     x="33.858826"
     height="81.095131"
     width="74.775764"
     style="fill:#ff1166;stroke-width:0.87623054;paint-order:normal" />
  <g
     style="stroke-linecap:round;stroke-linejoin:round"
     id="g80"
     class="B C"
     transform="matrix(0.87623052,0,0,0.87623052,230.86873,11.602777)">
    <path
       style="fill:none;stroke:#142151;stroke-width:12.11999989"
       inkscape:connector-curvature="0"
       id="path76"
       d="m -155.792,192.325 c -7.904,4.407 -24.816,6.715 -36.609,0.793" />
    <circle
       id="circle78"
       class="D N"
       style="fill:#ffffff;stroke:#ffffff;stroke-width:3.6099999;paint-order:normal"
       cx="-181.52299"
       cy="172.55299"
       r="8.2349997" />
  </g>
  <circle
     id="circle82"
     class="I"
     r="6.6549706"
     cy="161.70456"
     cx="73.042976"
     style="fill:#142151;stroke-width:0.87623054;paint-order:normal" />
  <circle
     id="circle84"
     class="B C D N"
     r="7.2157578"
     cy="160.33676"
     cx="93.010529"
     style="fill:#ffffff;stroke:#ffffff;stroke-width:3.16319227;stroke-linecap:round;stroke-linejoin:round;paint-order:normal" />
  <circle
     id="circle86"
     class="I"
     style="fill:#142151;stroke-width:0.87623054;paint-order:normal"
     cx="93.557297"
     cy="159.65331"
     r="6.6549706" />
  <path
     style="fill:#0037dd;stroke-width:1.02378416"
     inkscape:connector-curvature="0"
     id="path126"
     class="F"
     d="m 584.92815,23.938996 -34.5218,127.592714 33.63878,9.1582 34.52181,-127.592722 z" />
  <path
     style="fill:#c0a07b;stroke-width:1.02378416"
     inkscape:connector-curvature="0"
     id="path128"
     class="H"
     d="m 550.39859,151.52978 6.75541,28.4368 6.72634,1.85703 20.1635,-21.13434 z" />
  <g
     id="g140"
     transform="matrix(0.62340388,0.16971648,-0.16919276,0.62533361,316.97674,44.493432)"
     style="stroke-width:1.58246696">
    <rect
       id="rect130"
       class="K"
       ry="0"
       y="-142.47"
       x="386.95999"
       height="16.073999"
       width="64.134003"
       style="fill:#7c859f;stroke-width:1.58246696;paint-order:normal" />
    <rect
       id="rect132"
       class="F"
       style="fill:#0037dd;stroke-width:1.58246696;paint-order:normal"
       width="21.378"
       height="204.039"
       x="386.92801"
       y="-139.265"
       ry="0.013" />
    <rect
       id="rect134"
       ry="0.013"
       y="-139.265"
       x="408.30701"
       height="204.039"
       width="21.378"
       style="fill:#1f57ff;stroke-width:1.58246696;paint-order:normal" />
    <rect
       id="rect136"
       class="F"
       style="fill:#0037dd;stroke-width:1.58246696;paint-order:normal"
       width="21.378"
       height="204.039"
       x="429.685"
       y="-139.265"
       ry="0.013" />
    <rect
       id="rect138"
       class="I"
       style="fill:#142151;stroke-width:1.58246696;paint-order:normal"
       width="12.834"
       height="23.823999"
       x="412.58301"
       y="92.516998"
       ry="4.5510001" />
  </g>
  <path
     style="fill:#c0a07b;stroke-width:1.02378416"
     inkscape:connector-curvature="0"
     id="path142"
     class="H"
     d="m 547.22954,150.6667 9.29078,29.12687 4.03658,-25.49833 z m 26.65471,7.25645 -9.37023,24.07283 22.69758,-20.44493 z" />
  <path
     style="fill:#b0885a;stroke-width:1.02378416"
     inkscape:connector-curvature="0"
     id="path144"
     d="m 560.55754,154.29524 -4.03722,25.49833 7.99434,2.20305 9.37024,-24.07283 z" />
  <g
     id="g152"
     transform="matrix(0.62340388,0.16971648,-0.16919276,0.62533361,316.97674,44.493432)"
     style="stroke-width:1.58246696">
    <rect
       id="rect146"
       ry="17.105"
       y="-174.349"
       x="386.92899"
       height="34.209"
       width="64.134003"
       style="fill:#ff1166;stroke-width:1.58246696;paint-order:normal" />
    <rect
       id="rect148"
       class="K"
       style="fill:#7c859f;stroke-width:1.58246696;paint-order:normal"
       width="64.134003"
       height="16.073999"
       x="386.92899"
       y="-155.339"
       ry="0" />
    <circle
       id="circle150"
       class="D"
       style="fill:#ffffff;stroke-width:1.58246696;paint-order:normal"
       cx="402.298"
       cy="-116.397"
       r="9.8210001" />
  </g>
  <g
     style="fill:#ff1166;stroke:#ff1166;stroke-width:1.58246696;stroke-linecap:round;stroke-linejoin:round"
     id="g158"
     class="B C G"
     transform="matrix(0.64595556,0,0,0.64795509,316.97674,44.493432)">
    <path
       style="stroke-width:2.07303166"
       inkscape:connector-curvature="0"
       id="path154"
       d="m 425.933,30.307 -12.258,7.617 6.726,12.769 12.259,-7.617 z" />
    <path
       style="stroke-width:1.89737785"
       inkscape:connector-curvature="0"
       id="path156"
       d="m 421.312,47.333 -19.676,34.948 5.309,17.99 13.675,-12.838 z" />
  </g>
  <g
     id="g168"
     transform="matrix(0.62340388,0.16971648,-0.16919276,0.62533361,316.97674,44.493432)"
     style="stroke-width:1.58246696">
    <circle
       id="circle160"
       class="D"
       r="9.8210001"
       cy="-116.397"
       cx="437.03101"
       style="fill:#ffffff;stroke-width:1.58246696;paint-order:normal" />
    <g
       style="fill:#142151;stroke-width:1.58246696"
       id="g166"
       class="I">
      <circle
         id="circle162"
         cy="-116.135"
         cx="435.34601"
         style="stroke-width:1.58246696;paint-order:normal"
         r="6.8309999" />
      <circle
         id="circle164"
         r="6.8309999"
         style="stroke-width:1.58246696;paint-order:normal"
         cx="400.00601"
         cy="-115.748" />
    </g>
  </g>
</svg>
