<svg xmlns="http://www.w3.org/2000/svg" xmlns:xlink="http://www.w3.org/1999/xlink" width="3078" height="1417" viewBox="0 0 814.21 374.878"><style><![CDATA[.B{stroke-linecap:round}.C{stroke-linejoin:round}.D{fill:#fff}.E{fill-opacity:0.874}.F{fill:#0037dd}.G{stroke:#f16}.H{fill:#c0a07b}.I{fill:#142151}.J{stroke-width:41.518}.K{fill:#7c859f}.L{stroke:#ed105f}.M{stroke-opacity:0.282}.N{stroke-width:3.61}]]></style><defs><linearGradient id="A"><stop offset="0" stop-color="#234dfc"/><stop offset="1" stop-color="#234dfc" stop-opacity="0"/></linearGradient><linearGradient xlink:href="#A" id="B" x1="381.689" y1="213.877" x2="247.208" y2="157.256" gradientUnits="userSpaceOnUse"/></defs><g transform="translate(255.843 84.997)"><rect ry="0" y="-84.997" x="-255.843" height="374.878" width="814.21" class="D"/><path transform="matrix(.160709 .176537 -.164681 .15179 75.305 -80.316849)" d="M913.45 1587.516l-106.825 17.151-46.432 97.723-49.322-96.296-107.288-13.961 76.342-76.665-19.876-106.351 96.504 48.915 95.004-51.767-16.699 106.896z" fill="none" class="B C E G J M"/><path d="M309.903 101.545l-37.892 12.673-2.667-7.974q3.292-4.597 6.454-9.583 3.194-4.997 4.963-8.436 2.654-5.104 3.364-8.477.71-3.373-.211-6.128-1.106-3.306-3.841-4.374-2.714-1.111-6.701.223-2.982.997-5.876 3.335-2.862 2.327-5.042 5.182l-1.037.347-3.588-10.729q1.965-1.775 6.102-4.275 4.169-2.512 8.675-4.019 9.076-3.035 15.12-.804 6.033 2.199 8.364 9.168 1.529 4.57.604 9.457-.892 4.876-4.129 10.823-2.039 3.709-4.251 7.008-2.223 3.266-3.184 4.597l21.685-7.252zM278.002-7.578q1.258 3.76.915 7.478-.321 3.675-2.241 6.876-2.158 3.461-5.647 5.961-3.467 2.457-8.426 4.116-5.813 1.908-10.136 2.345-4.28.458-7.176.202l-3.567-10.664 1.361-.455q3.535.764 7.329.792 3.794.029 7.165-1.099 2.042-.683 4.257-1.928 2.236-1.288 3.218-2.986.766-1.373.97-2.595.237-1.232-.49-3.404-.564-1.686-1.743-2.625-1.157-.982-2.606-1.327-2.108-.484-4.68.016-2.583.467-4.592 1.139-2.917.976-5.434 2.394-2.495 1.375-4.342 2.534l-1.426.477-9.106-27.228 34.327-11.48 3.09 9.238-22.625 7.567 2.634 7.877q.983-.401 2.496-.943 1.534-.585 2.701-.976 3.987-1.333 7.359-1.596 3.394-.306 6.118.297 3.546.796 6.186 3.193 2.629 2.364 4.114 6.805zm81.463-45.628l-8.914 45.977-13.873 4.64 9.638-46.615-24.797 8.293-3.09-9.238L356.257-62.8z" fill="#234dfc"/><g fill="#f1f2f6"><g transform="matrix(.965417 -.260711 .25246 .967607 0 0)"><rect width="21.038" height="489.733" x="-74.708" y="-89.801" ry="16.906"/><rect ry="16.906" y="-90.014" x="14.772" height="489.733" width="21.038"/><rect width="21.038" height="489.733" x="104.253" y="-90.226" ry="16.906"/><rect ry="16.906" y="-90.439" x="193.733" height="489.733" width="21.038"/><rect width="21.038" height="489.733" x="283.214" y="-90.652" ry="16.906"/><rect ry="16.906" y="-90.864" x="372.694" height="489.733" width="21.038"/></g><rect transform="matrix(-.252525 -.967591 .965435 -.260643 0 0)" ry="16.171" y="-74.704" x="69.537" height="468.441" width="21.355"/><rect width="21.347" height="467.497" x="-23.499" y="-74.707" ry="16.138" transform="matrix(-.25125 -.967922 .965079 -.261958 0 0)"/><rect transform="matrix(-.251478 -.967863 .965143 -.261722 0 0)" ry="16.153" y="-74.613" x="-116.283" height="467.919" width="21.349"/><rect width="21.331" height="462.159" x="-209.646" y="-70.777" ry="15.954" transform="matrix(-.24836 -.968668 .964253 -.264984 0 0)"/><rect transform="matrix(-.245821 -.969315 .963505 -.267692 0 0)" ry="15.792" y="-67.058" x="-302.936" height="457.483" width="21.317"/><rect width="21.355" height="468.441" x="-395.992" y="-73.662" ry="16.171" transform="matrix(-.252525 -.967591 .965435 -.260643 0 0)"/></g><path transform="matrix(.278996 -.129157 .123833 .267495 108.426353 -185.93512)" d="M913.45 1587.516l-106.825 17.151-46.432 97.723-49.322-96.296-107.288-13.961 76.342-76.665-19.876-106.351 96.504 48.915 95.004-51.767-16.699 106.896z" opacity=".268" fill="none" stroke="#123ffc" stroke-width="31.89" class="B C E"/><g fill="#234dfc"><path style="paint-order:normal" d="M-3.183-19.629l-6.58 2.201 3.762 11.248-11.896 3.979-3.762-11.248-23.371 7.816c.12.276-.814-2.521-3.057-9.141l13.226-35.562 12.674-4.239 9.475 28.33 6.58-2.201zm-21.425-2.637l-5.832-17.439-8.203 22.133z"/><path d="M65.527 238.044q2.044.83 3.591 2.331 1.547 1.501 2.555 4.515 1.138 3.404.763 6.809-.342 3.394-2.425 6.433-2.04 2.953-5.366 5.291-3.305 2.295-8.556 4.051-5.997 2.005-10.622 2.507-4.593.491-7.674.224l-3.545-10.599 1.264-.423q3.351.753 7.621.695 4.302-.069 7.511-1.142 1.88-.629 3.987-1.658 2.096-1.061 3.272-2.608.928-1.211 1.262-2.584.323-1.405-.403-3.577-.705-2.107-2.056-2.916-1.363-.842-3.114-.797-1.762.013-4.009.728-2.258.683-4.171 1.323l-2.658.889-2.884-8.622 2.755-.922q2.528-.846 4.419-1.658 1.891-.812 3.057-1.851 1.22-1.093 1.597-2.336.366-1.276-.295-3.253-.488-1.459-1.526-2.085-1.049-.658-2.357-.797-1.459-.161-3.242.219-1.783.38-3.015.792-3.047 1.019-6.255 3.281-3.219 2.23-5.896 5.324l-1.199.401-3.502-10.47q2.3-1.959 6.545-4.46 4.234-2.533 8.934-4.105 4.57-1.528 8.277-1.867 3.696-.371 6.377.21 3.189.699 5.245 2.535 2.055 1.835 3.074 4.882 1.344 4.019-.089 8.031-1.444 3.979-5.236 6.22l.152.454q1.729-.326 3.804-.263 2.075.063 4.032.85zm-18.869-69.258l-32.22 10.776-2.819-8.428 10.178-3.404-8.532-25.51-10.178 3.404-2.634-7.877q2.334-.78 4.386-1.755 2.042-1.007 3.24-2.165 1.415-1.374 1.824-2.953.409-1.578-.112-3.567l10.729-3.588 13.367 39.967 9.951-3.328z"/></g><g fill="none" class="B C"><path d="M873.296 1621.793l-89.638-5.071-68.472 58.071-22.877-86.818-76.388-47.176 75.499-48.585 21.261-87.227 69.538 56.791 89.528-6.734-32.523 83.684z" transform="matrix(.427376 0 0 .409759 -498.239166 -599.879028)" stroke-width="22.94" class="E G M"/><path d="M913.45 1587.516l-106.825 17.151-46.432 97.723-49.322-96.296-107.288-13.961 76.342-76.665-19.876-106.351 96.504 48.915 95.004-51.767-16.699 106.896z" transform="matrix(.19289 .140663 -.13084 .181771 -94.13755 -467.300476)" opacity=".213" stroke="#bdc1d3" class="E J"/><path transform="matrix(.211537 -.028507 .027796 .199589 -300.401978 -170.395401)" d="M913.45 1587.516l-106.825 17.151-46.432 97.723-49.322-96.296-107.288-13.961 76.342-76.665-19.876-106.351 96.504 48.915 95.004-51.767-16.699 106.896z" stroke-width="46.288" class="E G M"/><path transform="matrix(.232939 .05227 -.047684 .218829 393.029755 -399.477875)" d="M913.45 1587.516l-106.825 17.151-46.432 97.723-49.322-96.296-107.288-13.961 76.342-76.665-19.876-106.351 96.504 48.915 95.004-51.767-16.699 106.896z" opacity=".213" stroke="#123ffc" class="E J"/><path d="M-212.525 194.179c-7.689 32.23-37.147-10.471-21.002-26.804m83.302 32.953c21.575 30.247 52.62-.949 54.328-2.206" stroke-width="19.988" class="L"/></g><g fill="#a329a3" stroke-width="17.612"><rect style="paint-order:normal" width="3.967" height="77.126" x="-152.257" y="200.203" ry="1.648" class="B C L"/><rect ry="1.648" y="200.203" x="-216.131" height="77.126" width="3.967" style="paint-order:normal" class="B C L"/></g><rect ry="42.669" y="135.554" x="-224.838" height="136.191" width="85.338" style="paint-order:normal" fill="#ed105f"/><rect style="paint-order:normal" width="85.338" height="92.55" x="-224.838" y="135.554" ry="42.669" fill="#f16"/><g class="B C"><path d="M-155.792 192.325c-7.904 4.407-24.816 6.715-36.609.793" fill="none" stroke="#142151" stroke-width="12.12"/><circle r="8.235" cy="172.553" cx="-181.523" style="paint-order:normal" stroke="#fff" class="D N"/></g><circle style="paint-order:normal" cx="-180.119" cy="171.304" r="7.595" class="I"/><circle style="paint-order:normal" cx="-157.331" cy="169.743" r="8.235" stroke="#fff" class="B C D N"/><circle r="7.595" cy="168.963" cx="-156.707" style="paint-order:normal" class="I"/><path d="M247.207 157.256c95.703 12.382 59.072 77.062 125.772 61.61" fill="none" stroke="url(#B)" stroke-width="14.665" class="B C"/><path d="M622.289-32.366v242.79h64.208V-32.366z" class="F"/><path d="M622.274 210.425l25.689 47.139 12.851.046 25.681-47.186z" class="H"/><rect ry=".015" y="-32.366" x="616.226" height="242.791" width="25.439" style="paint-order:normal" class="F"/><rect style="paint-order:normal" width="25.439" height="242.791" x="641.665" y="-32.366" ry=".015" fill="#1f57ff"/><rect ry=".015" y="-32.366" x="667.104" height="242.791" width="25.439" style="paint-order:normal" class="F"/><rect ry="5.415" y="243.437" x="646.753" height="28.348" width="15.272" style="paint-order:normal"/><path d="M616.226 210.424l30.527 47.139-5.089-47.139zm50.877 0l-5.079 47.186 30.518-47.186z" class="H"/><path d="M641.665 210.425l5.088 47.139 15.272.047 5.079-47.186z" fill="#b0885a"/><rect style="paint-order:normal" width="76.314" height="40.706" x="616.227" y="-74.114" ry="15.804" fill="#f92151"/><rect ry="0" y="-51.493" x="616.227" height="19.127" width="76.314" style="paint-order:normal" class="K"/><circle r="11.686" cy="-5.155" cx="634.515" style="paint-order:normal" class="D"/><g fill="#f92151"><path d="M654.39 35.401l-11.703 12.568 11.703 12.568 11.704-12.568z"/><path d="M654.39 56.394l-11.703 46.266 11.703 19.005 11.704-19.005z"/></g><circle style="paint-order:normal" cx="675.845" cy="-5.155" r="11.686" class="D"/><g fill="#241c1c"><circle cy="-5.155" cx="634.515" style="paint-order:normal" r="7.229"/><circle r="7.229" style="paint-order:normal" cx="675.845" cy="-5.155"/></g><path d="M414.814-31.722l-53.443 196.916 52.076 14.134L466.89-17.588z" class="F"/><path d="M361.359 165.191l10.458 43.887 10.413 2.866 31.215-32.617z" class="H"/><g transform="rotate(15.184393)"><rect style="paint-order:normal" width="64.134" height="16.074" x="386.96" y="-142.47" ry="0" class="K"/><rect ry=".013" y="-139.265" x="386.928" height="204.039" width="21.378" style="paint-order:normal" class="F"/><rect style="paint-order:normal" width="21.378" height="204.039" x="408.307" y="-139.265" ry=".013" fill="#1f57ff"/><rect ry=".013" y="-139.265" x="429.685" height="204.039" width="21.378" style="paint-order:normal" class="F"/><rect ry="4.551" y="92.517" x="412.583" height="23.824" width="12.834" style="paint-order:normal" class="I"/></g><path d="M356.453 163.859l14.383 44.952 6.249-39.352zm41.264 11.199l-14.506 37.152 35.138-31.553z" class="H"/><path d="M377.086 169.459l-6.25 39.352 12.376 3.4 14.506-37.152z" fill="#b0885a"/><g transform="rotate(15.184393)"><rect style="paint-order:normal" width="64.134" height="34.209" x="386.929" y="-174.349" ry="17.105" fill="#f16"/><rect ry="0" y="-155.339" x="386.929" height="16.074" width="64.134" style="paint-order:normal" class="K"/><circle r="9.821" cy="-116.397" cx="402.298" style="paint-order:normal" class="D"/></g><g fill="#f16" class="B C G"><path d="M425.933 30.307l-12.258 7.617 6.726 12.769 12.259-7.617z" stroke-width="1.31"/><path d="M421.312 47.333l-19.676 34.948 5.309 17.99 13.675-12.838z" stroke-width="1.199"/></g><g transform="rotate(15.184393)"><circle style="paint-order:normal" cx="437.031" cy="-116.397" r="9.821" class="D"/><g class="I"><circle r="6.831" style="paint-order:normal" cx="435.346" cy="-116.135"/><circle cy="-115.748" cx="400.006" style="paint-order:normal" r="6.831"/></g></g></g></svg>