<svg xmlns="http://www.w3.org/2000/svg" width="761" height="432" viewBox="0 0 201.348 114.111"><rect style="paint-order:normal" width="201.445" height="114.244" x=".057" y="-.021" ry="0" fill="#fff"/><path style="paint-order:normal" d="M167.633 72.168c33.929-2.651-6.361-60.607 33.869-72.056v114.111H.155c7.765-29.758 149.333 11.119 167.479-42.055z" fill="#f1f4ff"/><g fill="#123ffc"><rect style="paint-order:normal" width="3.124" height="19.19" x="86.771" y="164.657" ry="1.562" transform="matrix(.529806 .848119 -.848119 .529806 166.158005 -56.229)"/><rect transform="matrix(-.25406 .967188 -.967188 -.25406 166.158005 -56.229)" ry="1.562" y="29.451" x="178.937" height="19.19" width="3.124" style="paint-order:normal"/><rect style="paint-order:normal" width="3.124" height="19.19" x="108.22" y="127.172" ry="1.562" transform="matrix(.487174 .873305 -.873305 .487174 166.158005 -56.229)"/><rect transform="matrix(.344531 .938775 -.938775 .344531 166.158005 -56.229)" ry="1.562" y="89.274" x="126.842" height="19.19" width="3.124" style="paint-order:normal"/><rect style="paint-order:normal" width="3.124" height="19.19" x="154.08" y="-3.134" ry="1.562" transform="matrix(-.152574 .988292 -.988292 -.152574 166.158005 -56.229)"/><rect transform="matrix(.319738 .947506 -.947506 .319738 166.158005 -56.229)" ry="1.562" y="49.746" x="138.11" height="19.19" width="3.124" style="paint-order:normal"/><rect style="paint-order:normal" width="3.124" height="19.19" x="122.778" y="62.399" ry="1.562" transform="matrix(.535154 .844754 -.844754 .535154 166.158005 -56.229)"/><rect transform="matrix(.688889 .724867 -.724867 .688889 166.158005 -56.229)" ry="1.562" y="65.826" x="108.361" height="19.19" width="3.124" style="paint-order:normal"/></g><g stroke-linejoin="round" stroke-width="2.839" stroke="#123ffc" fill="#fff"><circle r="4.351" cy="116.008" cx="57.023" style="paint-order:normal"/><circle style="paint-order:normal" cx="73.308" cy="105.925" r="4.351"/><circle r="4.351" cy="110.865" cx="91.816" style="paint-order:normal"/><circle style="paint-order:normal" cx="108.581" cy="101.599" r="4.351"/><circle r="4.351" cy="95.071" cx="126.589" style="paint-order:normal"/><circle style="paint-order:normal" cx="145.508" cy="98.069" r="4.351"/><circle r="4.351" cy="92.387" cx="163.765" style="paint-order:normal"/><circle style="paint-order:normal" cx="180.231" cy="81.938" r="4.351"/></g><rect style="paint-order:normal" width="3.124" height="19.19" x="108.792" y="48.5" ry="1.562" transform="matrix(.697518 .716567 -.716567 .697518 166.158005 -56.229)" fill="#123ffc"/><g stroke-linejoin="round" stroke-width="2.839" stroke="#123ffc" fill="#fff"><circle r="4.351" cy="69.983" cx="194.599" style="paint-order:normal"/><circle style="paint-order:normal" cx="208.822" cy="57.418" r="4.351"/></g></svg>